<svg class="svg-icon" viewBox="0 0 1024 1024" version="1.1" xmlns="http://www.w3.org/2000/svg"><path d="M896 768H128c-17.066667 0-34.133333-12.8-42.666667-29.866667-4.266667-17.066667 0-38.4 17.066667-46.933333 0 0 110.933333-81.066667 110.933333-349.866667 0-166.4 132.266667-298.666667 298.666667-298.666666s298.666667 132.266667 298.666667 298.666666c0 268.8 106.666667 349.866667 110.933333 349.866667 17.066667 12.8 21.333333 29.866667 17.066667 46.933333s-25.6 29.866667-42.666667 29.866667zM217.6 682.666667h584.533333C768 618.666667 725.333333 512 725.333333 341.333333c0-119.466667-93.866667-213.333333-213.333333-213.333333S298.666667 221.866667 298.666667 341.333333c0 170.666667-42.666667 277.333333-81.066667 341.333334zM512 981.333333c-21.333333 0-42.666667-4.266667-64-17.066666-21.333333-12.8-34.133333-25.6-46.933333-46.933334-12.8-21.333333-4.266667-46.933333 17.066666-59.733333 21.333333-12.8 46.933333-4.266667 59.733334 17.066667 4.266667 4.266667 8.533333 12.8 17.066666 17.066666 21.333333 12.8 46.933333 4.266667 59.733334-17.066666 12.8-21.333333 38.4-25.6 59.733333-17.066667 21.333333 12.8 25.6 38.4 17.066667 59.733333C597.333333 960 554.666667 981.333333 512 981.333333z"  /></svg>