<svg class="svg-icon" viewBox="0 0 1024 1024" version="1.1" xmlns="http://www.w3.org/2000/svg"><path d="M512 853.333333c-94.08-20.48-384-180.906667-384-469.333333a213.333333 213.333333 0 0 1 384-128 213.333333 213.333333 0 0 1 384 128c0 288.426667-289.92 448.853333-384 469.333333z m0-85.333333c133.12-39.68 298.666667-205.013333 298.666667-384a128 128 0 0 0-128-128c-55.68 0-112.554667 35.541333-170.666667 106.666667C453.888 291.541333 397.013333 256 341.333333 256a128 128 0 0 0-128 128c0 178.986667 165.546667 344.32 298.666667 384z" /></svg>