<svg style="width: 1.125em; height: 1em;vertical-align: middle;overflow: hidden;" viewBox="0 0 1152 1024" version="1.1" xmlns="http://www.w3.org/2000/svg"><path d="M1088 128l-64 0 0-64c0-35.20512-28.79488-64-64-64l-896 0c-35.20512 0-64 28.79488-64 64l0 768c0 35.20512 28.79488 64 64 64l64 0 0 64c0 35.20512 28.79488 64 64 64l896 0c35.20512 0 64-28.79488 64-64l0-768c0-35.20512-28.79488-64-64-64zM128 192l0 640-63.87712 0c-0.04096-0.04096-0.08192-0.08192-0.12288-0.12288l0-767.77472c0.04096-0.04096 0.08192-0.08192 0.12288-0.12288l895.77472 0c0.04096 0.04096 0.08192 0.08192 0.12288 0.12288l0 63.87712-768 0c-35.20512 0-64 28.79488-64 64l0 0zM1088 959.87712c-0.04096 0.04096-0.08192 0.08192-0.12288 0.12288l-895.77472 0c-0.04096-0.04096-0.08192-0.08192-0.12288-0.12288l0-767.77472c0.04096-0.04096 0.08192-0.08192 0.12288-0.12288l895.77472 0c0.04096 0.04096 0.08192 0.08192 0.12288 0.12288l0 767.77472z"  /><path d="M960 352.01024c0 53.02272-42.98752 96.01024-96.01024 96.01024s-96.01024-42.98752-96.01024-96.01024 42.98752-96.01024 96.01024-96.01024 96.01024 42.98752 96.01024 96.01024z"  /><path d="M1024 896l-768 0 0-128 224.01024-384 256 320 64 0 224.01024-192z"  /></svg>