<svg class="svg-icon" style="width: 1em; height: 1em;vertical-align: middle;overflow: hidden;" viewBox="0 0 1024 1024" version="1.1" xmlns="http://www.w3.org/2000/svg"><path d="M929.85737 358.2c0-194.4-127.4-251.4-127.4-251.4-125-57.4-457-56.8-580.8 0 0 0-127.4 57-127.4 251.4 0 231.4-13.2 518.8 211.2 578.2 81 21.4 150.6 26 206.6 22.8 101.6-5.6 158.6-36.2 158.6-36.2l-3.4-73.8s-72.6 22.8-154.2 20.2c-80.8-2.8-166-8.8-179.2-108-1.2-8.8-1.8-18-1.8-27.8 171.2 41.8 317.2 18.2 357.4 13.4 112.2-13.4 210-82.6 222.4-145.8 19.6-99.6 18-243 18-243z m-150.2 250.4h-93.2V380.2c0-99.4-128-103.2-128 13.8v125h-92.6V394c0-117-128-113.2-128-13.8v228.4H244.45737c0-244.2-10.4-295.8 36.8-350 51.8-57.8 159.6-61.6 207.6 12.2l23.2 39 23.2-39c48.2-74.2 156.2-69.6 207.6-12.2 47.4 54.6 36.8 106 36.8 350z" /></svg>