<svg class="svg-icon" style="width: 1em; height: 1em;vertical-align: middle;overflow: hidden;" viewBox="0 0 1025 1024" version="1.1" xmlns="http://www.w3.org/2000/svg"><path d="M42.839467 1024c-12.8 0-21.333333-4.266667-29.866667-12.8C0.1728 998.4-4.093867 981.333333 4.439467 964.266667l128-298.666667c0-4.266667 4.266667-8.533333 8.533333-12.8L746.839467 46.933333c59.733333-59.733333 166.4-59.733333 230.4 0C1007.106133 81.066667 1024.1728 119.466667 1024.1728 162.133333c0 42.666667-17.066667 85.333333-46.933333 115.2L371.3728 883.2c-4.266667 4.266667-8.533333 8.533333-12.8 8.533333l-298.666667 128C55.639467 1024 47.106133 1024 42.839467 1024zM204.9728 708.266667l-81.066667 192 192-81.066667 597.333333-597.333333C930.306133 204.8 938.839467 183.466667 938.839467 162.133333c0-21.333333-8.533333-38.4-21.333333-55.466667-34.133333-34.133333-81.066667-29.866667-110.933333 0L204.9728 708.266667z"  /><path d="M341.506133 896c-12.8 0-21.333333-4.266667-29.866667-12.8l-170.666667-170.666667c-17.066667-17.066667-17.066667-42.666667 0-59.733333s42.666667-17.066667 59.733333 0l170.666667 170.666667c17.066667 17.066667 17.066667 42.666667 0 59.733333C362.839467 891.733333 354.306133 896 341.506133 896z"  /><path d="M874.839467 320c-12.8 0-21.333333-4.266667-29.866667-12.8l-149.333333-149.333333c-17.066667-17.066667-17.066667-42.666667 0-59.733333s42.666667-17.066667 59.733333 0l149.333333 149.333333c17.066667 17.066667 17.066667 42.666667 0 59.733333C896.1728 315.733333 887.639467 320 874.839467 320z"  /></svg>