<svg class="svg-icon" style="width: 1.5em; height: 1.5em;vertical-align: middle;fill: var(--ledit-color);overflow: hidden;" viewBox="0 0 1024 1024" version="1.1" xmlns="http://www.w3.org/2000/svg"><path d="M212.522667 635.178667l176.298666 176.298666 422.656-422.656V212.522667h-176.298666L212.48 635.178667zM575.402667 152.746667c15.829333-15.829333 37.333333-24.746667 59.733333-24.746667h176.341333C858.154667 128 896 165.845333 896 212.522667v176.298666c0 22.442667-8.917333 43.946667-24.746667 59.776l-422.656 422.656a84.522667 84.522667 0 0 1-119.552 0L152.746667 694.954667a84.522667 84.522667 0 0 1 0-119.552l422.656-422.656zM682.666667 384a42.666667 42.666667 0 1 0 0-85.333333 42.666667 42.666667 0 0 0 0 85.333333z" /></svg>