<svg class="svg-icon" viewBox="0 0 1024 1024" version="1.1" xmlns="http://www.w3.org/2000/svg"><path d="M875.2 480c-85.44-96-218.24-151.68-384-160V175.04a43.2 43.2 0 0 0-25.28-39.04 44.8 44.8 0 0 0-46.08 5.44L38.4 443.2a42.56 42.56 0 0 0 0 66.88l380.16 304.64a44.8 44.8 0 0 0 46.4 5.76 42.88 42.88 0 0 0 25.28-39.04v-148.16c384 5.44 411.52 241.28 412.48 251.2a40.96 40.96 0 0 0 38.72 39.04h2.24a41.92 41.92 0 0 0 41.6-36.48c0.32-1.92 35.84-242.24-110.08-407.04z m-428.8-74.56c160 0 286.08 45.12 362.24 130.56a384 384 0 0 1 81.28 153.92c-71.36-73.28-192-142.4-443.52-142.4a44.16 44.16 0 0 0-32 12.48 41.92 41.92 0 0 0-13.12 32v100.8L136 476.8l266.24-211.84v96a43.52 43.52 0 0 0 43.84 44.16z m497.28 503.68z"  /></svg>