<svg class="svg-icon" viewBox="0 0 1024 1024" version="1.1" xmlns="http://www.w3.org/2000/svg"><path d="M170.666667 42.666667l682.666667 0q52.992 0 90.496 37.504t37.504 90.496l0 469.333333q0 52.992-37.504 90.496t-90.496 37.504l-341.333333 0-298.666667 213.333333 0-213.333333-42.666667 0q-52.992 0-90.496-37.504t-37.504-90.496l0-469.333333q0-52.992 37.504-90.496t90.496-37.504zM853.333333 128l-682.666667 0q-17.664 0-30.165333 12.501333t-12.501333 30.165333l0 469.333333q0 17.664 12.501333 30.165333t30.165333 12.501333l128 0 0 132.992 185.984-132.992 368.682667 0q17.664 0 30.165333-12.501333t12.501333-30.165333l0-469.333333q0-17.664-12.501333-30.165333t-30.165333-12.501333z"  /></svg>